<svg width="40" height="41" viewBox="0 0 40 41" fill="none" xmlns="http://www.w3.org/2000/svg">
<path d="M20 38.4167C19 38.4167 18.0166 38.1833 17.2166 37.7333L9.33331 33.1833C6.06664 30.9833 5.84998 30.5833 5.84998 27.1333V18.8667C5.84998 15.4167 6.06664 15.0167 9.26664 12.8667L17.2333 8.26666C18.8166 7.35 21.2 7.35 22.7833 8.26666L30.6666 12.8167C33.9333 15.0167 34.15 15.4167 34.15 18.8667V27.1333C34.15 30.5833 33.9333 30.9833 30.7333 33.1333L22.7666 37.7333C21.9833 38.2 20.9833 38.4167 20 38.4167ZM20 10.0833C19.4333 10.0833 18.8666 10.2 18.4666 10.4333L10.5833 14.9833C8.34998 16.5 8.34998 16.5 8.34998 18.8667V27.1333C8.34998 29.5 8.34998 29.5 10.6666 31.0667L18.4833 35.5667C19.2833 36.0333 20.7333 36.0333 21.5333 35.5667L29.4166 31.0167C31.65 29.5 31.65 29.5 31.65 27.1333V18.8667C31.65 16.5 31.65 16.5 29.3333 14.9333L21.5166 10.4333C21.1333 10.2 20.5666 10.0833 20 10.0833Z" fill="#157AFE"/>
<path d="M29.1667 14.4667C28.4834 14.4667 27.9167 13.9 27.9167 13.2167V8.83333C27.9167 6.19999 26.8 5.08333 24.1667 5.08333H15.8334C13.2 5.08333 12.0834 6.19999 12.0834 8.83333V13.1C12.0834 13.7833 11.5167 14.35 10.8334 14.35C10.15 14.35 9.58337 13.8 9.58337 13.1V8.83333C9.58337 4.79999 11.8 2.58333 15.8334 2.58333H24.1667C28.2 2.58333 30.4167 4.79999 30.4167 8.83333V13.2167C30.4167 13.9 29.85 14.4667 29.1667 14.4667Z" fill="#157AFE"/>
<path d="M22.7166 29.8833C22.3666 29.8833 21.9999 29.8167 21.6333 29.6667L19.9999 29.0333L18.3666 29.6833C17.4833 30.0333 16.5833 29.95 15.9166 29.4667C15.2499 28.9833 14.8999 28.15 14.9499 27.2L15.0499 25.45L13.9333 24.1C13.3333 23.35 13.1333 22.4833 13.3999 21.6833C13.6499 20.9 14.3333 20.3 15.2499 20.0667L16.9499 19.6333L17.8999 18.15C18.9166 16.55 21.0999 16.55 22.1166 18.15L23.0666 19.6333L24.7666 20.0667C25.6833 20.3 26.3666 20.9 26.6166 21.6833C26.8666 22.4667 26.6666 23.35 26.0666 24.0833L24.9499 25.4333L25.0499 27.1833C25.0999 28.1333 24.7499 28.95 24.0833 29.45C23.6833 29.7333 23.2166 29.8833 22.7166 29.8833ZM15.8666 22.5L16.9833 23.85C17.3666 24.3 17.5833 25.0167 17.5499 25.6L17.4499 27.35L19.0833 26.7C19.6333 26.4833 20.3666 26.4833 20.9166 26.7L22.5499 27.35L22.4499 25.6C22.4166 25.0167 22.6333 24.3167 23.0166 23.85L24.1333 22.5L22.4333 22.0667C21.8666 21.9167 21.2666 21.4833 20.9499 21L20.0166 19.5333L19.0666 21C18.7499 21.5 18.1499 21.9333 17.5833 22.0833L15.8666 22.5Z" fill="#157AFE"/>
</svg>
