<svg width="40" height="41" viewBox="0 0 40 41" fill="none" xmlns="http://www.w3.org/2000/svg">
<path d="M20 37.3C19.5 37.3 19 37.1833 18.5834 36.95C15.4667 35.25 9.98337 33.45 6.55004 33L6.06671 32.9333C3.88337 32.6667 2.08337 30.6167 2.08337 28.4V8.26667C2.08337 6.95 2.60004 5.75 3.55004 4.88334C4.50004 4.01667 5.73337 3.6 7.03337 3.71667C10.7 4 16.2334 5.83334 19.3667 7.8L19.7667 8.03334C19.8834 8.1 20.1334 8.1 20.2334 8.05L20.5 7.88334C23.6334 5.91667 29.1667 4.05 32.85 3.73334C32.8834 3.73334 33.0167 3.73334 33.05 3.73334C34.2667 3.61667 35.5167 4.05 36.45 4.91667C37.4 5.78334 37.9167 6.98334 37.9167 8.3V28.4167C37.9167 30.65 36.1167 32.6833 33.9167 32.95L33.3667 33.0167C29.9334 33.4667 24.4334 35.2833 21.3834 36.9667C20.9834 37.2 20.5 37.3 20 37.3ZM6.63337 6.2C6.10004 6.2 5.61671 6.38334 5.23337 6.73334C4.81671 7.11667 4.58337 7.66667 4.58337 8.26667V28.4C4.58337 29.3833 5.43337 30.3333 6.38337 30.4667L6.88337 30.5333C10.6334 31.0333 16.3834 32.9167 19.7167 34.7333C19.8667 34.8 20.0834 34.8167 20.1667 34.7833C23.5 32.9333 29.2834 31.0333 33.05 30.5333L33.6167 30.4667C34.5667 30.35 35.4167 29.3833 35.4167 28.4V8.28334C35.4167 7.66667 35.1834 7.13334 34.7667 6.73334C34.3334 6.35 33.7834 6.16667 33.1667 6.2C33.1334 6.2 33 6.2 32.9667 6.2C29.7834 6.48334 24.65 8.2 21.85 9.95L21.5834 10.1333C20.6667 10.7 19.3667 10.7 18.4834 10.15L18.0834 9.91667C15.2334 8.16667 10.1 6.46667 6.83337 6.2C6.76671 6.2 6.70004 6.2 6.63337 6.2Z" fill="#4BBC9A"/>
<path d="M20 35.9C19.3167 35.9 18.75 35.3333 18.75 34.65V9.64999C18.75 8.96666 19.3167 8.39999 20 8.39999C20.6833 8.39999 21.25 8.96666 21.25 9.64999V34.65C21.25 35.35 20.6833 35.9 20 35.9Z" fill="#4BBC9A"/>
<path d="M12.9166 15.9H9.16663C8.48329 15.9 7.91663 15.3333 7.91663 14.65C7.91663 13.9667 8.48329 13.4 9.16663 13.4H12.9166C13.6 13.4 14.1666 13.9667 14.1666 14.65C14.1666 15.3333 13.6 15.9 12.9166 15.9Z" fill="#4BBC9A"/>
<path d="M14.1666 20.9H9.16663C8.48329 20.9 7.91663 20.3333 7.91663 19.65C7.91663 18.9667 8.48329 18.4 9.16663 18.4H14.1666C14.85 18.4 15.4166 18.9667 15.4166 19.65C15.4166 20.3333 14.85 20.9 14.1666 20.9Z" fill="#4BBC9A"/>
</svg>
