<svg width="17" height="16" viewBox="0 0 17 16" fill="none" xmlns="http://www.w3.org/2000/svg">
<path d="M13.1752 1.33325H12.0274V5.21816C12.0274 5.49111 11.7514 5.62606 11.5376 5.28336L10.7794 4.07028L10.0212 5.28336C9.80589 5.62454 9.53143 5.49111 9.53143 5.21816V1.33325H5.68291C4.75259 1.33575 3.99976 2.09063 3.99976 3.02096V12.9834C4.00226 13.912 4.75437 14.6641 5.68291 14.6666H13.1768C13.3817 14.6662 13.5781 14.5844 13.7226 14.4391C13.8679 14.2946 13.9498 14.0982 13.9501 13.8932V2.10811C13.9493 1.6805 13.6029 1.33409 13.1752 1.33325ZM13.3193 12.665L6.00741 12.6741C5.84804 12.6851 5.72124 12.8119 5.71025 12.9713C5.69808 13.1475 5.83114 13.3003 6.00741 13.3125H13.3193L13.3178 13.9008C13.3179 13.9359 13.3042 13.9696 13.2799 13.9948C13.2547 14.0192 13.2209 14.0328 13.1859 14.0327H5.68291C5.10715 14.0327 4.64042 13.566 4.64042 12.9903C4.64042 12.4145 5.10715 11.9478 5.68291 11.9478H13.1859C13.2592 11.9486 13.3185 12.0078 13.3193 12.0812V12.665Z" fill="#838383"/>
</svg>
