<svg width="18" height="19" viewBox="0 0 18 19" fill="none" xmlns="http://www.w3.org/2000/svg">
<path d="M6.29248 14.1476V6.52757C6.29248 6.22757 6.38248 5.93507 6.54748 5.68757L8.59498 2.64257C8.91748 2.15507 9.71998 1.81007 10.4025 2.06507C11.1375 2.31257 11.625 3.13757 11.4675 3.87257L11.0775 6.32507C11.0475 6.55007 11.1075 6.75257 11.235 6.91007C11.3625 7.05257 11.55 7.14257 11.7525 7.14257H14.835C15.4275 7.14257 15.9375 7.38257 16.2375 7.80257C16.5225 8.20757 16.575 8.73257 16.3875 9.26507L14.5425 14.8826C14.31 15.8126 13.2975 16.5701 12.2925 16.5701H9.36748C8.86498 16.5701 8.15998 16.3976 7.83748 16.0751L6.87748 15.3326C6.50998 15.0551 6.29248 14.6126 6.29248 14.1476Z" fill="#FFAE41"/>
<path d="M3.9075 5.06506H3.135C1.9725 5.06506 1.5 5.51506 1.5 6.62506V14.1701C1.5 15.2801 1.9725 15.7301 3.135 15.7301H3.9075C5.07 15.7301 5.5425 15.2801 5.5425 14.1701V6.62506C5.5425 5.51506 5.07 5.06506 3.9075 5.06506Z" fill="#FFAE41"/>
</svg>
