<svg width="18" height="19" viewBox="0 0 18 19" fill="none" xmlns="http://www.w3.org/2000/svg">
<path d="M15.9374 14.6125L14.6999 14.905C14.4224 14.9725 14.2049 15.1825 14.1449 15.46L13.8824 16.5625C13.7399 17.1625 12.9749 17.35 12.5774 16.8775L10.3349 14.2975C10.1549 14.0875 10.2524 13.7575 10.5224 13.69C11.8499 13.3675 13.0424 12.625 13.9199 11.5675C14.0624 11.395 14.3174 11.3725 14.4749 11.53L16.1399 13.195C16.7099 13.765 16.5074 14.4775 15.9374 14.6125Z" fill="#8785FF"/>
<path d="M2.02488 14.6125L3.26238 14.905C3.53988 14.9725 3.75738 15.1825 3.81738 15.46L4.07988 16.5625C4.22238 17.1625 4.98738 17.35 5.38488 16.8775L7.62738 14.2975C7.80738 14.0875 7.70988 13.7575 7.43988 13.69C6.11238 13.3675 4.91988 12.625 4.04238 11.5675C3.89988 11.395 3.64488 11.3725 3.48738 11.53L1.82238 13.195C1.25238 13.765 1.45488 14.4775 2.02488 14.6125Z" fill="#8785FF"/>
<path d="M9 2.26001C6.0975 2.26001 3.75 4.60751 3.75 7.51001C3.75 8.59751 4.0725 9.59501 4.6275 10.4275C5.4375 11.6275 6.72 12.475 8.2125 12.6925C8.4675 12.7375 8.73 12.76 9 12.76C9.27 12.76 9.5325 12.7375 9.7875 12.6925C11.28 12.475 12.5625 11.6275 13.3725 10.4275C13.9275 9.59501 14.25 8.59751 14.25 7.51001C14.25 4.60751 11.9025 2.26001 9 2.26001ZM11.295 7.34501L10.6725 7.96751C10.5675 8.07251 10.5075 8.27501 10.545 8.42501L10.725 9.19751C10.8675 9.80501 10.545 10.045 10.005 9.72251L9.255 9.28001C9.12 9.19751 8.895 9.19751 8.76 9.28001L8.01 9.72251C7.47 10.0375 7.1475 9.80501 7.29 9.19751L7.47 8.42501C7.5 8.28251 7.4475 8.07251 7.3425 7.96751L6.705 7.34501C6.3375 6.97751 6.4575 6.61001 6.9675 6.52751L7.77 6.39251C7.905 6.37001 8.0625 6.25001 8.1225 6.13001L8.565 5.24501C8.805 4.76501 9.195 4.76501 9.435 5.24501L9.8775 6.13001C9.9375 6.25001 10.095 6.37001 10.2375 6.39251L11.04 6.52751C11.5425 6.61001 11.6625 6.97751 11.295 7.34501Z" fill="#8785FF"/>
</svg>
