<svg width="19" height="18" viewBox="0 0 19 18" fill="none" xmlns="http://www.w3.org/2000/svg">
<path d="M5.0726 5.02818L5.08233 5.02735L5.09202 5.02614C5.24414 5.00712 5.40927 5 5.5925 5H10.3925C11.5113 5 12.26 5.2802 12.7324 5.75262C13.2048 6.22504 13.485 6.97372 13.485 8.0925V11.0925C13.485 11.2757 13.4779 11.4409 13.4589 11.593L13.4576 11.6028L13.4568 11.6126C13.3783 12.5344 13.0758 13.1525 12.6096 13.5481C12.1367 13.9494 11.4213 14.185 10.3925 14.185H10.0925C9.74762 14.185 9.41943 14.3491 9.2125 14.625L8.3125 15.825L8.31182 15.8259C8.1924 15.9859 8.07177 16.0244 7.9925 16.0244C7.91323 16.0244 7.7926 15.9859 7.67318 15.8259L7.6725 15.825L6.7725 14.625L6.77252 14.625L6.76968 14.6213C6.66253 14.4812 6.5163 14.3781 6.38334 14.3109C6.25069 14.2439 6.0768 14.185 5.8925 14.185H5.5925C4.40446 14.185 3.67686 14.0291 3.22794 13.6371C2.79582 13.2598 2.5 12.5495 2.5 11.0925V8.0925C2.5 7.06456 2.73708 6.34893 3.13938 5.87573C3.5362 5.40897 4.15479 5.10666 5.0726 5.02818ZM4.125 9.75C4.125 10.4354 4.6756 11 5.375 11C6.06364 11 6.625 10.4386 6.625 9.75C6.625 9.06136 6.06364 8.5 5.375 8.5C4.68636 8.5 4.125 9.06136 4.125 9.75ZM6.7425 9.75C6.7425 10.4354 7.2931 11 7.9925 11C8.6919 11 9.2425 10.4354 9.2425 9.75C9.2425 9.06136 8.68114 8.5 7.9925 8.5C7.30386 8.5 6.7425 9.06136 6.7425 9.75ZM9.3675 9.75C9.3675 10.4354 9.9181 11 10.6175 11C11.3061 11 11.8675 10.4386 11.8675 9.75C11.8675 9.06136 11.3061 8.5 10.6175 8.5C9.92886 8.5 9.3675 9.06136 9.3675 9.75Z" fill="#242424" stroke="#242424"/>
<path d="M15.6099 8.09385V8.0925C15.6099 6.49822 15.1519 5.17735 14.2297 4.2552C13.3076 3.33304 11.9867 2.875 10.3924 2.875L10.3916 2.875L6.13948 2.88198C6.61097 2.32113 7.38638 2 8.59244 2H13.3924C14.5112 2 15.2599 2.2802 15.7323 2.75262C16.2047 3.22504 16.4849 3.97372 16.4849 5.0925V8.0925C16.4849 9.30527 16.1637 10.0812 15.6033 10.5527L15.6099 8.09385Z" fill="#242424" stroke="#242424"/>
</svg>
