<svg width="15" height="15" viewBox="0 0 15 15" fill="none" xmlns="http://www.w3.org/2000/svg">
<path d="M11 9.83333V11.5833C11 12.5458 10.2125 13.3333 9.25 13.3333H5.75C4.7875 13.3333 4 12.5458 4 11.5833V9.24416C4 8.92333 4.2625 8.66083 4.58917 8.66083L6.26917 8.66666C6.67167 8.66666 7.06833 8.75416 7.43583 8.92916C7.83833 9.11583 8.26417 9.24999 8.71333 9.24999H10.4167C10.7375 9.24999 11 9.51249 11 9.83333Z" fill="#242424"/>
<path d="M10.6558 5.98919L9.41917 4.75252C9.30833 4.64169 9.25 4.49585 9.25 4.34419V3.36419C9.58833 3.24752 9.83333 2.92085 9.83333 2.54169C9.83333 2.05752 9.4425 1.66669 8.95833 1.66669H6.04167C5.5575 1.66669 5.16667 2.05752 5.16667 2.54169C5.16667 2.92085 5.41167 3.24752 5.75 3.36419V4.34419C5.75 4.49585 5.69167 4.64169 5.58083 4.75252L4.34417 5.98919C4.1575 6.17585 4 6.55502 4 6.81752V7.19669C4 7.51752 4.25667 7.78002 4.5775 7.78002L6.275 7.79169C6.84667 7.79169 7.42417 7.93169 7.9375 8.20002C8.1825 8.32835 8.4625 8.37502 8.73667 8.37502H10.4167C10.7375 8.37502 11 8.11252 11 7.79169V6.81752C11 6.55502 10.8425 6.17585 10.6558 5.98919Z" fill="#242424"/>
</svg>
