<svg width="19" height="18" viewBox="0 0 19 18" fill="none" xmlns="http://www.w3.org/2000/svg">
<path d="M14.5767 11.1255L14.578 11.1277C14.7908 11.4769 14.8275 11.8859 14.6871 12.2587C14.5437 12.6391 14.2505 12.9237 13.8739 13.0475L13.8739 13.0475L13.8711 13.0484C12.4692 13.5181 10.993 13.75 9.51496 13.75C8.03696 13.75 6.56158 13.5181 5.161 13.0416L5.15999 13.0413C4.72794 12.8953 4.42937 12.6047 4.30817 12.2664L4.30819 12.2664L4.30675 12.2625C4.17721 11.9101 4.21509 11.5125 4.44608 11.125C4.44631 11.1246 4.44654 11.1242 4.44677 11.1238L5.2028 9.87375L5.20285 9.87379L5.20685 9.86694C5.31627 9.67935 5.40524 9.43432 5.4665 9.20899C5.52767 8.98403 5.57496 8.72819 5.57496 8.5125V6.615C5.57496 5.07404 6.47157 3.73487 7.77264 3.08767L7.91097 3.01886L7.98637 2.88402C8.28925 2.34233 8.85861 2 9.49246 2C10.1381 2 10.6913 2.33124 10.9922 2.86353L11.0698 3.00079L11.2121 3.06872C12.5381 3.70178 13.455 5.05332 13.455 6.615V8.5125C13.455 8.72818 13.5023 8.98396 13.5633 9.20937C13.6246 9.43596 13.7129 9.68049 13.8201 9.8693L13.82 9.86939L13.8267 9.88051L14.5767 11.1255ZM9.49246 1.5C8.67496 1.5 7.93996 1.9425 7.54996 2.64L14.03 13.5225C14.555 13.35 14.96 12.9525 15.155 12.435C15.35 11.9175 15.2975 11.3475 15.005 10.8675L14.255 9.6225C14.0975 9.345 13.955 8.82 13.955 8.5125V6.615C13.955 4.8525 12.92 3.33 11.4275 2.6175C11.0375 1.9275 10.3175 1.5 9.49246 1.5Z" fill="#242424" stroke="#242424"/>
<path d="M9.50001 16C9.10349 16 8.71271 15.8611 8.41066 15.6148C8.77425 15.6417 9.14387 15.6575 9.51501 15.6575C9.87786 15.6575 10.2392 15.6419 10.5946 15.6152C10.2937 15.8562 9.9128 16 9.50001 16Z" fill="#242424" stroke="#242424"/>
</svg>
