<svg width="18" height="19" viewBox="0 0 18 19" fill="none" xmlns="http://www.w3.org/2000/svg">
<path d="M15.1424 11.305L14.2949 9.89499C14.1074 9.58749 13.9424 8.99499 13.9424 8.63499V7.23249C13.9424 4.50999 11.7299 2.29749 9.01491 2.29749C6.29241 2.30499 4.07991 4.50999 4.07991 7.23249V8.62749C4.07991 8.98749 3.91491 9.57999 3.73491 9.88749L2.88741 11.2975C2.56491 11.845 2.48991 12.4675 2.69241 13.0075C2.89491 13.555 3.35241 13.99 3.95241 14.185C4.76241 14.455 5.57991 14.65 6.41241 14.7925C6.49491 14.8075 6.57741 14.815 6.65991 14.83C6.76491 14.845 6.87741 14.86 6.98991 14.875C7.18491 14.905 7.37991 14.9275 7.58241 14.9425C8.05491 14.9875 8.53491 15.01 9.01491 15.01C9.48741 15.01 9.95991 14.9875 10.4249 14.9425C10.5974 14.9275 10.7699 14.9125 10.9349 14.89C11.0699 14.875 11.2049 14.86 11.3399 14.8375C11.4224 14.83 11.5049 14.815 11.5874 14.8C12.4274 14.665 13.2599 14.455 14.0699 14.185C14.6474 13.99 15.0899 13.555 15.2999 13C15.5099 12.4375 15.4499 11.8225 15.1424 11.305ZM9.56241 8.25999C9.56241 8.57499 9.30741 8.82999 8.99241 8.82999C8.67741 8.82999 8.42241 8.57499 8.42241 8.25999V5.93499C8.42241 5.61999 8.67741 5.36499 8.99241 5.36499C9.30741 5.36499 9.56241 5.61999 9.56241 5.93499V8.25999Z" fill="#4ABDE8"/>
<path d="M11.1225 15.7675C10.8075 16.6375 9.97501 17.26 9.00001 17.26C8.40751 17.26 7.82251 17.02 7.41001 16.5925C7.17001 16.3675 6.99001 16.0675 6.88501 15.76C6.98251 15.775 7.08001 15.7825 7.18501 15.7975C7.35751 15.82 7.53751 15.8425 7.71751 15.8575C8.14501 15.895 8.58001 15.9175 9.01501 15.9175C9.44251 15.9175 9.87001 15.895 10.29 15.8575C10.4475 15.8425 10.605 15.835 10.755 15.8125C10.875 15.7975 10.995 15.7825 11.1225 15.7675Z" fill="#4ABDE8"/>
</svg>
