<svg width="15" height="15" viewBox="0 0 15 15" fill="none" xmlns="http://www.w3.org/2000/svg">
<path d="M10.7259 5.03252C10.685 5.02669 10.6442 5.02669 10.6034 5.03252C9.69919 5.00335 8.98169 4.26252 8.98169 3.35252C8.98169 2.42502 9.73419 1.66669 10.6675 1.66669C11.595 1.66669 12.3534 2.41919 12.3534 3.35252C12.3475 4.26252 11.63 5.00335 10.7259 5.03252Z" fill="#242424"/>
<path d="M12.6275 9.07499C11.9742 9.51249 11.0583 9.67583 10.2125 9.56499C10.4342 9.08666 10.5508 8.55583 10.5567 7.99583C10.5567 7.41249 10.4283 6.85832 10.1833 6.37416C11.0467 6.25749 11.9625 6.42082 12.6217 6.85832C13.5433 7.46499 13.5434 8.46249 12.6275 9.07499Z" fill="#242424"/>
<path d="M4.25668 5.03252C4.29751 5.02669 4.33834 5.02669 4.37918 5.03252C5.28334 5.00335 6.00084 4.26252 6.00084 3.35252C6.00084 2.41919 5.24834 1.66669 4.31501 1.66669C3.38751 1.66669 2.63501 2.41919 2.63501 3.35252C2.63501 4.26252 3.35251 5.00335 4.25668 5.03252Z" fill="#242424"/>
<path d="M4.3209 7.99581C4.3209 8.56165 4.4434 9.09831 4.66507 9.58248C3.84257 9.66998 2.98507 9.49498 2.35507 9.08081C1.4334 8.46831 1.4334 7.47081 2.35507 6.85831C2.97924 6.43831 3.86007 6.26915 4.6884 6.36248C4.44923 6.85248 4.3209 7.40665 4.3209 7.99581Z" fill="#242424"/>
<path d="M7.57005 9.7575C7.52338 9.75167 7.47088 9.75167 7.41838 9.7575C6.34505 9.7225 5.48755 8.84167 5.48755 7.75667C5.49338 6.64833 6.38588 5.75 7.50005 5.75C8.60838 5.75 9.50671 6.64833 9.50671 7.75667C9.50088 8.84167 8.64922 9.7225 7.57005 9.7575Z" fill="#242424"/>
<path d="M5.67405 10.965C4.79322 11.5541 4.79322 12.5225 5.67405 13.1058C6.67739 13.7766 8.32239 13.7766 9.32572 13.1058C10.2066 12.5166 10.2066 11.5483 9.32572 10.965C8.32822 10.2941 6.68322 10.2941 5.67405 10.965Z" fill="#242424"/>
</svg>
