<svg width="15" height="15" viewBox="0 0 15 15" fill="none" xmlns="http://www.w3.org/2000/svg">
<path d="M5.75008 1.66669C4.22175 1.66669 2.97925 2.90919 2.97925 4.43752C2.97925 5.93669 4.15175 7.15002 5.68008 7.20252C5.72675 7.19669 5.77341 7.19669 5.80841 7.20252C5.82008 7.20252 5.82591 7.20252 5.83758 7.20252C5.84341 7.20252 5.84341 7.20252 5.84925 7.20252C7.34258 7.15002 8.51508 5.93669 8.52091 4.43752C8.52091 2.90919 7.27841 1.66669 5.75008 1.66669Z" fill="#242424"/>
<path d="M8.71331 8.75418C7.08581 7.66918 4.43164 7.66918 2.79248 8.75418C2.05164 9.25001 1.64331 9.92085 1.64331 10.6383C1.64331 11.3558 2.05164 12.0208 2.78664 12.5108C3.60331 13.0592 4.67664 13.3333 5.74998 13.3333C6.82331 13.3333 7.89664 13.0592 8.71331 12.5108C9.44831 12.015 9.85664 11.35 9.85664 10.6267C9.85081 9.90918 9.44831 9.24418 8.71331 8.75418Z" fill="#242424"/>
<path d="M12.1607 4.78168C12.254 5.91335 11.449 6.90502 10.3349 7.03918C10.329 7.03918 10.329 7.03918 10.3232 7.03918H10.3057C10.2707 7.03918 10.2357 7.03918 10.2065 7.05085C9.64071 7.08002 9.12155 6.89918 8.73071 6.56668C9.33155 6.03002 9.67571 5.22502 9.60571 4.35002C9.56488 3.87752 9.40155 3.44585 9.15655 3.07835C9.37821 2.96752 9.63488 2.89752 9.89738 2.87418C11.0407 2.77502 12.0615 3.62668 12.1607 4.78168Z" fill="#242424"/>
<path d="M13.3276 10.1775C13.2809 10.7433 12.9192 11.2333 12.3126 11.5658C11.7292 11.8867 10.9942 12.0383 10.2651 12.0208C10.6851 11.6417 10.9301 11.1692 10.9767 10.6675C11.0351 9.94417 10.6909 9.25001 10.0026 8.69584C9.61172 8.38667 9.15672 8.14167 8.66089 7.96084C9.95006 7.58751 11.5717 7.83834 12.5692 8.64334C13.1059 9.07501 13.3801 9.61751 13.3276 10.1775Z" fill="#242424"/>
</svg>
