<svg width="16" height="16" viewBox="0 0 16 16" fill="none" xmlns="http://www.w3.org/2000/svg">
<path d="M14.2001 5.05333H10.4801C10.2201 5.05333 10.0134 4.84666 10.0134 4.58666C10.0134 4.32666 10.2201 4.12 10.4801 4.12H14.2001C14.4601 4.12 14.6668 4.32666 14.6668 4.58666C14.6668 4.84666 14.4601 5.05333 14.2001 5.05333Z" fill="#242424"/>
<path d="M4.27992 5.05333H1.79992C1.53992 5.05333 1.33325 4.84666 1.33325 4.58666C1.33325 4.32666 1.53992 4.12 1.79992 4.12H4.27992C4.53992 4.12 4.74658 4.32666 4.74658 4.58666C4.74658 4.84666 4.53325 5.05333 4.27992 5.05333Z" fill="#242424"/>
<path d="M6.76004 7.22004C8.21439 7.22004 9.39338 6.04105 9.39338 4.5867C9.39338 3.13235 8.21439 1.95337 6.76004 1.95337C5.30569 1.95337 4.12671 3.13235 4.12671 4.5867C4.12671 6.04105 5.30569 7.22004 6.76004 7.22004Z" fill="#242424"/>
<path d="M14.2001 11.8733H11.7201C11.4601 11.8733 11.2534 11.6666 11.2534 11.4066C11.2534 11.1466 11.4601 10.9399 11.7201 10.9399H14.2001C14.4601 10.9399 14.6668 11.1466 14.6668 11.4066C14.6668 11.6666 14.4601 11.8733 14.2001 11.8733Z" fill="#242424"/>
<path d="M5.51992 11.8733H1.79992C1.53992 11.8733 1.33325 11.6666 1.33325 11.4066C1.33325 11.1466 1.53992 10.9399 1.79992 10.9399H5.51992C5.77992 10.9399 5.98658 11.1466 5.98658 11.4066C5.98658 11.6666 5.77325 11.8733 5.51992 11.8733Z" fill="#242424"/>
<path d="M9.24002 14.0467C10.6944 14.0467 11.8734 12.8677 11.8734 11.4134C11.8734 9.95901 10.6944 8.78003 9.24002 8.78003C7.78567 8.78003 6.60669 9.95901 6.60669 11.4134C6.60669 12.8677 7.78567 14.0467 9.24002 14.0467Z" fill="#242424"/>
</svg>
